<?xml version="1.0" encoding="utf-8"?>
<svg version="1.1" id="layer" xmlns="http://www.w3.org/2000/svg" x="0px" y="0px" viewBox="0 0 652 652" style="enable-background:new 0 0 652 652;" xml:space="preserve">
  <g transform="translate(50,50)">
    <rect width="100%" height="100%" fill="none"/>
    <g transform="scale(1.5) translate(80,80)">
      <path d="M206.2,352.2l3.6,6.2c6.1,8.3,12.7,24.5,2.5,39.2c0.8-1.2,4.9-8.4-0.3-22c0,0,2.6,27.4-29.4,19.3 
        c-18.9-4.8-36.4-14.1-51-27.1l0.8-1.1l11.7,8.5c31.4,22.7,52.2,18.4,52.2,18.4c-27.3,0.2-52.2-20.2-52.2-20.2 
        c-2.1-2.9-3.1-6.6-2.9-10.2l-3-4.9c0,0,9.4-14.5,12.9-22.1c0,0,28,8.3,33.3,28c0,0,6.2,21.2-28.2,6.3c0,0,63,32.9,48-4 
        c0,0-12.7-25.7-50.1-37.9l0.3-0.8c7.3,2,14.2,5.1,20.6,9.2c40.5,25.5,32.5,42.7,32.5,42.7l0.6-0.4c6.1-20.8-32.9-43.1-32.9-43.1 
        l-13.1-13c5.3,1.6,10.4,3.6,15.5,6l3.3,1.3c-9.4-6.2-22.2-9.8-24.2-10.3c2.3-9.9,3.7-20,4-30.1c1.6-42.4-15.7-61.8-37.9-62 
        c-2,0-15.9-0.3-25.2,15.1l1.6-1.2c3.9-3.9,14-11.2,23.3-10.3l3.8,2.1c0,0-9.3-2.3-15,4.3c0,0,8.4-7.8,20.8-1.4l0.8,1 
        c-1.6-0.9-3.2-1.6-5-2.1c-0.9-0.2-7.3-1.8-11.9,0.7l6.1,2.1c0.4,0,28,1.6,25.6,54.2c-0.7,14.3-4.8,39.8-20.3,59.4 
        c-14.6,18.4-56.7,58.5-80.6,40.5c0,0-12-8.6,1.4-31.4c0,0-13.5,14.7-8.7,35.3c0,0-16-13.4,6.4-44.2c16.1-20.4,41.9-29.4,41.9-29.4 
        l2.3,0.1l-8.2,10.8c-17.7,6.1-31.6,27.4-31.6,27.4c-18.1,34.3,10.3,32.5,10.3,32.5c-5.6-2.3-5-8.7-5-8.7c7.4,4,17.1,0,17.1,0 
        c18-6.3,38.8-30.2,38.8-30.2l-1.4,0.2l-5,4.9l-3.7,0.7c-17.6,16.7-43.5,23.5-36.6,4c6.5-18.3,29.3-27.2,32.1-28.2 
        c3.1,6.3,6.6,12.4,10.4,18.3l8.1-10.1l0,0l0.1-0.1l0,0l7.2-9.6c-0.8-1.1-1.5-2.2-2.1-3.4h3.5l3.3-6l-0.8,6l-4,6.8l-0.3,2.4l5.5-8.3 
        c3.9-7.5,8.6-20.4,9-39.3c0,0,3-32.5-14.8-45.4l0,0c0,0,7.4-3.8,14.9,7.2c2.3,3.7,4.1,7.6,5.5,11.7c0.9,2.5,1.6,5,2.1,7.5 
        c-6.4-40.3-27.4-28.5-27.4-28.5c-3.6,1.6-19.5,11.3-17.6,48.2c1.6,17.8,6.9,35,15.7,50.4c-5.2-5.5-10-16-10-16l1,7.7l-0.7,2v2.2 
        l-0.6,4.7l-9.6-15l-1.4-4.4l-1-5.3L85.3,282.4z" fill="white"/>
    </g>
  </g>
</svg>
